<svg width="202" height="1091" viewBox="0 0 202 1091" fill="none" xmlns="http://www.w3.org/2000/svg">
<mask id="mask0_148_14" style="mask-type:alpha" maskUnits="userSpaceOnUse" x="0" y="0" width="202" height="1091">
<rect width="201.472" height="1091" fill="#D9D9D9"/>
</mask>
<g mask="url(#mask0_148_14)">
<path d="M173.864 1089.1L199.908 1089.1L199.908 -2.1947L173.864 -2.1947L173.864 1089.1Z" fill="#9C1B1C" stroke="#9C1B1C" stroke-width="0.6" stroke-miterlimit="10"/>
<path d="M1.95616 1089.1L27.9998 1089.1L27.9999 -0.0140381L1.95626 -0.0140403L1.95616 1089.1Z" fill="#9C1B1C" stroke="#9C1B1C" stroke-width="0.6" stroke-miterlimit="10"/>
<path d="M94.85 58.2573L107.064 58.2573L107.064 45.4612L94.85 45.4612L94.85 58.2573Z" fill="#9C1B1C" stroke="#9C1B1C" stroke-width="0.59" stroke-miterlimit="10"/>
<path d="M82.6105 45.4619L94.8247 45.4619L94.8247 32.6656L82.6105 32.6656L82.6105 45.4619Z" fill="#9C1B1C" stroke="#9C1B1C" stroke-width="0.59" stroke-miterlimit="10"/>
<path d="M107.039 45.4619L119.253 45.4619L119.253 32.6656L107.039 32.6656L107.039 45.4619Z" fill="#9C1B1C" stroke="#9C1B1C" stroke-width="0.59" stroke-miterlimit="10"/>
<path d="M119.254 32.665L131.468 32.665L131.468 19.8687L119.254 19.8687L119.254 32.665Z" fill="#9C1B1C" stroke="#9C1B1C" stroke-width="0.59" stroke-miterlimit="10"/>
<path d="M107.039 32.665L119.253 32.665L119.253 19.8687L107.039 19.8687L107.039 32.665Z" fill="#9C1B1C" stroke="#9C1B1C" stroke-width="0.59" stroke-miterlimit="10"/>
<path d="M94.8248 45.4619L107.039 45.4619L107.039 32.6656L94.8248 32.6656L94.8248 45.4619Z" fill="#9C1B1C" stroke="#9C1B1C" stroke-width="0.59" stroke-miterlimit="10"/>
<path d="M94.8248 7.76147L107.039 7.76147L107.039 -5.03484L94.8248 -5.03484L94.8248 7.76147Z" fill="#9C1B1C" stroke="#9C1B1C" stroke-width="0.59" stroke-miterlimit="10"/>
<path d="M82.6105 32.665L94.8247 32.665L94.8247 19.8687L82.6105 19.8687L82.6105 32.665Z" fill="#9C1B1C" stroke="#9C1B1C" stroke-width="0.59" stroke-miterlimit="10"/>
<path d="M70.3961 32.665L82.6104 32.665L82.6104 19.8687L70.3961 19.8687L70.3961 32.665Z" fill="#9C1B1C" stroke="#9C1B1C" stroke-width="0.59" stroke-miterlimit="10"/>
<path d="M119.253 19.8691L131.468 19.8691L131.468 7.073L119.253 7.073L119.253 19.8691Z" fill="#9C1B1C" stroke="#9C1B1C" stroke-width="0.59" stroke-miterlimit="10"/>
<path d="M143.682 7.07275L155.896 7.07275L155.896 -5.72356L143.682 -5.72356L143.682 7.07275Z" fill="#9C1B1C" stroke="#9C1B1C" stroke-width="0.59" stroke-miterlimit="10"/>
<path d="M131.468 7.07275L143.682 7.07275L143.682 -5.72356L131.468 -5.72356L131.468 7.07275Z" fill="#9C1B1C" stroke="#9C1B1C" stroke-width="0.59" stroke-miterlimit="10"/>
<path d="M131.468 19.8691L143.682 19.8691L143.682 7.073L131.468 7.073L131.468 19.8691Z" fill="#9C1B1C" stroke="#9C1B1C" stroke-width="0.59" stroke-miterlimit="10"/>
<path d="M58.1822 19.8691L70.3965 19.8691L70.3965 7.073L58.1822 7.073L58.1822 19.8691Z" fill="#9C1B1C" stroke="#9C1B1C" stroke-width="0.59" stroke-miterlimit="10"/>
<path d="M70.3963 19.8691L82.6106 19.8691L82.6106 7.073L70.3964 7.073L70.3963 19.8691Z" fill="#9C1B1C" stroke="#9C1B1C" stroke-width="0.59" stroke-miterlimit="10"/>
<path d="M58.182 7.07275L70.3962 7.07275L70.3962 -5.72356L58.182 -5.72356L58.182 7.07275Z" fill="#9C1B1C" stroke="#9C1B1C" stroke-width="0.59" stroke-miterlimit="10"/>
<path d="M45.9679 7.07275L58.1821 7.07275L58.1821 -5.72356L45.9679 -5.72356L45.9679 7.07275Z" fill="#9C1B1C" stroke="#9C1B1C" stroke-width="0.59" stroke-miterlimit="10"/>
<path d="M94.85 229.574L107.064 229.574L107.064 216.777L94.85 216.777L94.85 229.574Z" fill="#9C1B1C" stroke="#9C1B1C" stroke-width="0.59" stroke-miterlimit="10"/>
<path d="M82.6359 216.777L94.8501 216.777L94.8501 203.981L82.6359 203.981L82.6359 216.777Z" fill="#9C1B1C" stroke="#9C1B1C" stroke-width="0.59" stroke-miterlimit="10"/>
<path d="M107.039 216.777L119.253 216.777L119.253 203.981L107.039 203.981L107.039 216.777Z" fill="#9C1B1C" stroke="#9C1B1C" stroke-width="0.59" stroke-miterlimit="10"/>
<path d="M119.254 203.981L131.468 203.981L131.468 191.185L119.254 191.185L119.254 203.981Z" fill="#9C1B1C" stroke="#9C1B1C" stroke-width="0.59" stroke-miterlimit="10"/>
<path d="M107.039 203.981L119.253 203.981L119.253 191.185L107.039 191.185L107.039 203.981Z" fill="#9C1B1C" stroke="#9C1B1C" stroke-width="0.59" stroke-miterlimit="10"/>
<path d="M94.8248 216.777L107.039 216.777L107.039 203.981L94.8248 203.981L94.8248 216.777Z" fill="#9C1B1C" stroke="#9C1B1C" stroke-width="0.59" stroke-miterlimit="10"/>
<path d="M82.6356 166.281L94.8499 166.281L94.8499 153.484L82.6356 153.484L82.6356 166.281Z" fill="#9C1B1C" stroke="#9C1B1C" stroke-width="0.59" stroke-miterlimit="10"/>
<path d="M94.8243 166.281L107.039 166.281L107.039 153.484L94.8243 153.484L94.8243 166.281Z" fill="#9C1B1C" stroke="#9C1B1C" stroke-width="0.59" stroke-miterlimit="10"/>
<path d="M107.039 166.281L119.253 166.281L119.253 153.484L107.039 153.484L107.039 166.281Z" fill="#9C1B1C" stroke="#9C1B1C" stroke-width="0.59" stroke-miterlimit="10"/>
<path d="M94.8243 153.484L107.039 153.484L107.039 140.688L94.8243 140.688L94.8243 153.484Z" fill="#9C1B1C" stroke="#9C1B1C" stroke-width="0.59" stroke-miterlimit="10"/>
<path d="M94.8243 179.077L107.039 179.077L107.039 166.281L94.8243 166.281L94.8243 179.077Z" fill="#9C1B1C" stroke="#9C1B1C" stroke-width="0.59" stroke-miterlimit="10"/>
<path d="M82.6359 203.981L94.8501 203.981L94.8501 191.185L82.6359 191.185L82.6359 203.981Z" fill="#9C1B1C" stroke="#9C1B1C" stroke-width="0.59" stroke-miterlimit="10"/>
<path d="M70.3963 203.981L82.6106 203.981L82.6106 191.185L70.3964 191.185L70.3963 203.981Z" fill="#9C1B1C" stroke="#9C1B1C" stroke-width="0.59" stroke-miterlimit="10"/>
<path d="M119.254 191.185L131.468 191.185L131.468 178.389L119.254 178.389L119.254 191.185Z" fill="#9C1B1C" stroke="#9C1B1C" stroke-width="0.59" stroke-miterlimit="10"/>
<path d="M143.682 178.389L155.896 178.389L155.896 165.593L143.682 165.593L143.682 178.389Z" fill="#9C1B1C" stroke="#9C1B1C" stroke-width="0.59" stroke-miterlimit="10"/>
<path d="M131.468 178.389L143.682 178.389L143.682 165.593L131.468 165.593L131.468 178.389Z" fill="#9C1B1C" stroke="#9C1B1C" stroke-width="0.59" stroke-miterlimit="10"/>
<path d="M131.468 191.185L143.682 191.185L143.682 178.389L131.468 178.389L131.468 191.185Z" fill="#9C1B1C" stroke="#9C1B1C" stroke-width="0.59" stroke-miterlimit="10"/>
<path d="M58.1817 191.185L70.396 191.185L70.396 178.389L58.1818 178.389L58.1817 191.185Z" fill="#9C1B1C" stroke="#9C1B1C" stroke-width="0.59" stroke-miterlimit="10"/>
<path d="M70.3963 191.185L82.6106 191.185L82.6106 178.389L70.3964 178.389L70.3963 191.185Z" fill="#9C1B1C" stroke="#9C1B1C" stroke-width="0.59" stroke-miterlimit="10"/>
<path d="M58.1817 178.389L70.396 178.389L70.396 165.593L58.1818 165.593L58.1817 178.389Z" fill="#9C1B1C" stroke="#9C1B1C" stroke-width="0.59" stroke-miterlimit="10"/>
<path d="M45.9679 178.389L58.1821 178.389L58.1821 165.593L45.9679 165.593L45.9679 178.389Z" fill="#9C1B1C" stroke="#9C1B1C" stroke-width="0.59" stroke-miterlimit="10"/>
<path d="M143.682 165.564L155.896 165.564L155.896 152.768L143.682 152.768L143.682 165.564Z" fill="#9C1B1C" stroke="#9C1B1C" stroke-width="0.59" stroke-miterlimit="10"/>
<path d="M58.1817 152.767L70.396 152.767L70.396 139.971L58.1818 139.971L58.1817 152.767Z" fill="#9C1B1C" stroke="#9C1B1C" stroke-width="0.59" stroke-miterlimit="10"/>
<path d="M131.468 152.767L143.682 152.767L143.682 139.971L131.468 139.971L131.468 152.767Z" fill="#9C1B1C" stroke="#9C1B1C" stroke-width="0.59" stroke-miterlimit="10"/>
<path d="M45.9928 152.939L58.207 152.939L58.207 140.143L45.9928 140.143L45.9928 152.939Z" fill="#9C1B1C" stroke="#9C1B1C" stroke-width="0.59" stroke-miterlimit="10"/>
<path d="M143.682 152.767L155.896 152.767L155.896 139.971L143.682 139.971L143.682 152.767Z" fill="#9C1B1C" stroke="#9C1B1C" stroke-width="0.59" stroke-miterlimit="10"/>
<path d="M45.9679 165.564L58.1821 165.564L58.1821 152.768L45.9679 152.768L45.9679 165.564Z" fill="#9C1B1C" stroke="#9C1B1C" stroke-width="0.59" stroke-miterlimit="10"/>
<path d="M94.8248 101.583L107.039 101.583L107.039 88.7862L94.8248 88.7862L94.8248 101.583Z" fill="#9C1B1C" stroke="#9C1B1C" stroke-width="0.59" stroke-miterlimit="10"/>
<path d="M82.6102 114.378L94.8245 114.378L94.8245 101.582L82.6102 101.582L82.6102 114.378Z" fill="#9C1B1C" stroke="#9C1B1C" stroke-width="0.59" stroke-miterlimit="10"/>
<path d="M70.3963 127.232L82.6106 127.232L82.6106 114.436L70.3964 114.436L70.3963 127.232Z" fill="#9C1B1C" stroke="#9C1B1C" stroke-width="0.59" stroke-miterlimit="10"/>
<path d="M82.6102 127.175L94.8245 127.175L94.8245 114.378L82.6102 114.378L82.6102 127.175Z" fill="#9C1B1C" stroke="#9C1B1C" stroke-width="0.59" stroke-miterlimit="10"/>
<path d="M94.8248 114.378L107.039 114.378L107.039 101.582L94.8248 101.582L94.8248 114.378Z" fill="#9C1B1C" stroke="#9C1B1C" stroke-width="0.59" stroke-miterlimit="10"/>
<path d="M107.039 127.232L119.253 127.232L119.253 114.436L107.039 114.436L107.039 127.232Z" fill="#9C1B1C" stroke="#9C1B1C" stroke-width="0.59" stroke-miterlimit="10"/>
<path d="M119.254 127.175L131.468 127.175L131.468 114.378L119.254 114.378L119.254 127.175Z" fill="#9C1B1C" stroke="#9C1B1C" stroke-width="0.59" stroke-miterlimit="10"/>
<path d="M70.3963 140.085L82.6106 140.085L82.6106 127.289L70.3964 127.289L70.3963 140.085Z" fill="#9C1B1C" stroke="#9C1B1C" stroke-width="0.59" stroke-miterlimit="10"/>
<path d="M58.1825 140.085L70.3967 140.085L70.3967 127.289L58.1825 127.289L58.1825 140.085Z" fill="#9C1B1C" stroke="#9C1B1C" stroke-width="0.59" stroke-miterlimit="10"/>
<path d="M131.468 139.97L143.682 139.97L143.682 127.174L131.468 127.174L131.468 139.97Z" fill="#9C1B1C" stroke="#9C1B1C" stroke-width="0.59" stroke-miterlimit="10"/>
<path d="M119.254 139.97L131.468 139.97L131.468 127.174L119.254 127.174L119.254 139.97Z" fill="#9C1B1C" stroke="#9C1B1C" stroke-width="0.59" stroke-miterlimit="10"/>
<path d="M107.039 114.378L119.253 114.378L119.253 101.582L107.039 101.582L107.039 114.378Z" fill="#9C1B1C" stroke="#9C1B1C" stroke-width="0.59" stroke-miterlimit="10"/>
<path d="M94.9 400.888L107.114 400.888L107.114 388.091L94.9 388.091L94.9 400.888Z" fill="#9C1B1C" stroke="#9C1B1C" stroke-width="0.59" stroke-miterlimit="10"/>
<path d="M82.6861 388.091L94.9004 388.091L94.9004 375.295L82.6861 375.295L82.6861 388.091Z" fill="#9C1B1C" stroke="#9C1B1C" stroke-width="0.59" stroke-miterlimit="10"/>
<path d="M107.089 388.091L119.303 388.091L119.303 375.295L107.089 375.295L107.089 388.091Z" fill="#9C1B1C" stroke="#9C1B1C" stroke-width="0.59" stroke-miterlimit="10"/>
<path d="M119.304 375.296L131.518 375.296L131.518 362.5L119.304 362.5L119.304 375.296Z" fill="#9C1B1C" stroke="#9C1B1C" stroke-width="0.59" stroke-miterlimit="10"/>
<path d="M107.089 375.296L119.303 375.296L119.303 362.5L107.089 362.5L107.089 375.296Z" fill="#9C1B1C" stroke="#9C1B1C" stroke-width="0.59" stroke-miterlimit="10"/>
<path d="M94.9 388.091L107.114 388.091L107.114 375.295L94.9 375.295L94.9 388.091Z" fill="#9C1B1C" stroke="#9C1B1C" stroke-width="0.59" stroke-miterlimit="10"/>
<path d="M82.6864 337.565L94.9006 337.565L94.9006 324.769L82.6864 324.769L82.6864 337.565Z" fill="#9C1B1C" stroke="#9C1B1C" stroke-width="0.59" stroke-miterlimit="10"/>
<path d="M94.9005 337.565L107.115 337.565L107.115 324.769L94.9005 324.769L94.9005 337.565Z" fill="#9C1B1C" stroke="#9C1B1C" stroke-width="0.59" stroke-miterlimit="10"/>
<path d="M107.089 337.565L119.303 337.565L119.303 324.769L107.089 324.769L107.089 337.565Z" fill="#9C1B1C" stroke="#9C1B1C" stroke-width="0.59" stroke-miterlimit="10"/>
<path d="M94.9005 324.77L107.115 324.77L107.115 311.974L94.9005 311.974L94.9005 324.77Z" fill="#9C1B1C" stroke="#9C1B1C" stroke-width="0.59" stroke-miterlimit="10"/>
<path d="M94.9005 350.391L107.115 350.391L107.115 337.595L94.9005 337.595L94.9005 350.391Z" fill="#9C1B1C" stroke="#9C1B1C" stroke-width="0.59" stroke-miterlimit="10"/>
<path d="M82.6861 375.296L94.9004 375.296L94.9004 362.5L82.6861 362.5L82.6861 375.296Z" fill="#9C1B1C" stroke="#9C1B1C" stroke-width="0.59" stroke-miterlimit="10"/>
<path d="M70.4718 375.296L82.686 375.296L82.686 362.5L70.4718 362.5L70.4718 375.296Z" fill="#9C1B1C" stroke="#9C1B1C" stroke-width="0.59" stroke-miterlimit="10"/>
<path d="M119.304 362.47L131.518 362.47L131.518 349.674L119.304 349.674L119.304 362.47Z" fill="#9C1B1C" stroke="#9C1B1C" stroke-width="0.59" stroke-miterlimit="10"/>
<path d="M143.732 349.674L155.946 349.674L155.946 336.878L143.732 336.878L143.732 349.674Z" fill="#9C1B1C" stroke="#9C1B1C" stroke-width="0.59" stroke-miterlimit="10"/>
<path d="M131.518 349.674L143.732 349.674L143.732 336.878L131.518 336.878L131.518 349.674Z" fill="#9C1B1C" stroke="#9C1B1C" stroke-width="0.59" stroke-miterlimit="10"/>
<path d="M131.518 362.47L143.732 362.47L143.732 349.674L131.518 349.674L131.518 362.47Z" fill="#9C1B1C" stroke="#9C1B1C" stroke-width="0.59" stroke-miterlimit="10"/>
<path d="M58.232 362.47L70.4463 362.47L70.4463 349.674L58.232 349.674L58.232 362.47Z" fill="#9C1B1C" stroke="#9C1B1C" stroke-width="0.59" stroke-miterlimit="10"/>
<path d="M70.4718 362.47L82.686 362.47L82.686 349.674L70.4718 349.674L70.4718 362.47Z" fill="#9C1B1C" stroke="#9C1B1C" stroke-width="0.59" stroke-miterlimit="10"/>
<path d="M58.232 349.674L70.4463 349.674L70.4463 336.878L58.232 336.878L58.232 349.674Z" fill="#9C1B1C" stroke="#9C1B1C" stroke-width="0.59" stroke-miterlimit="10"/>
<path d="M46.0179 349.674L58.2322 349.674L58.2322 336.878L46.0179 336.878L46.0179 349.674Z" fill="#9C1B1C" stroke="#9C1B1C" stroke-width="0.59" stroke-miterlimit="10"/>
<path d="M143.732 336.878L155.946 336.878L155.946 324.082L143.732 324.082L143.732 336.878Z" fill="#9C1B1C" stroke="#9C1B1C" stroke-width="0.59" stroke-miterlimit="10"/>
<path d="M58.232 324.081L70.4463 324.081L70.4463 311.284L58.232 311.284L58.232 324.081Z" fill="#9C1B1C" stroke="#9C1B1C" stroke-width="0.59" stroke-miterlimit="10"/>
<path d="M131.518 324.081L143.732 324.081L143.732 311.284L131.518 311.284L131.518 324.081Z" fill="#9C1B1C" stroke="#9C1B1C" stroke-width="0.59" stroke-miterlimit="10"/>
<path d="M46.0431 324.253L58.2573 324.253L58.2573 311.457L46.0431 311.457L46.0431 324.253Z" fill="#9C1B1C" stroke="#9C1B1C" stroke-width="0.59" stroke-miterlimit="10"/>
<path d="M143.732 324.081L155.946 324.081L155.946 311.284L143.732 311.284L143.732 324.081Z" fill="#9C1B1C" stroke="#9C1B1C" stroke-width="0.59" stroke-miterlimit="10"/>
<path d="M46.0179 336.878L58.2322 336.878L58.2322 324.082L46.0179 324.082L46.0179 336.878Z" fill="#9C1B1C" stroke="#9C1B1C" stroke-width="0.59" stroke-miterlimit="10"/>
<path d="M94.8749 272.897L107.089 272.897L107.089 260.101L94.8749 260.101L94.8749 272.897Z" fill="#9C1B1C" stroke="#9C1B1C" stroke-width="0.59" stroke-miterlimit="10"/>
<path d="M82.6605 285.693L94.8748 285.693L94.8748 272.897L82.6605 272.897L82.6605 285.693Z" fill="#9C1B1C" stroke="#9C1B1C" stroke-width="0.59" stroke-miterlimit="10"/>
<path d="M70.4466 298.546L82.6609 298.546L82.6609 285.75L70.4466 285.75L70.4466 298.546Z" fill="#9C1B1C" stroke="#9C1B1C" stroke-width="0.59" stroke-miterlimit="10"/>
<path d="M82.6605 298.489L94.8748 298.489L94.8748 285.692L82.6605 285.692L82.6605 298.489Z" fill="#9C1B1C" stroke="#9C1B1C" stroke-width="0.59" stroke-miterlimit="10"/>
<path d="M94.8749 285.693L107.089 285.693L107.089 272.897L94.8749 272.897L94.8749 285.693Z" fill="#9C1B1C" stroke="#9C1B1C" stroke-width="0.59" stroke-miterlimit="10"/>
<path d="M107.089 298.546L119.303 298.546L119.303 285.75L107.089 285.75L107.089 298.546Z" fill="#9C1B1C" stroke="#9C1B1C" stroke-width="0.59" stroke-miterlimit="10"/>
<path d="M119.304 298.489L131.518 298.489L131.518 285.692L119.304 285.692L119.304 298.489Z" fill="#9C1B1C" stroke="#9C1B1C" stroke-width="0.59" stroke-miterlimit="10"/>
<path d="M70.4466 311.4L82.6609 311.4L82.6609 298.604L70.4466 298.604L70.4466 311.4Z" fill="#9C1B1C" stroke="#9C1B1C" stroke-width="0.59" stroke-miterlimit="10"/>
<path d="M58.232 311.4L70.4463 311.4L70.4463 298.604L58.232 298.604L58.232 311.4Z" fill="#9C1B1C" stroke="#9C1B1C" stroke-width="0.59" stroke-miterlimit="10"/>
<path d="M131.518 311.285L143.732 311.285L143.732 298.489L131.518 298.489L131.518 311.285Z" fill="#9C1B1C" stroke="#9C1B1C" stroke-width="0.59" stroke-miterlimit="10"/>
<path d="M119.304 311.285L131.518 311.285L131.518 298.489L119.304 298.489L119.304 311.285Z" fill="#9C1B1C" stroke="#9C1B1C" stroke-width="0.59" stroke-miterlimit="10"/>
<path d="M107.089 285.693L119.303 285.693L119.303 272.897L107.089 272.897L107.089 285.693Z" fill="#9C1B1C" stroke="#9C1B1C" stroke-width="0.59" stroke-miterlimit="10"/>
<path d="M111.027 422.578L124.301 422.578L124.301 410.785L111.027 410.785L111.027 422.578Z" fill="#9C1B1C" stroke="#9C1B1C" stroke-width="0.59" stroke-miterlimit="10"/>
<path d="M124.301 434.341L137.575 434.341L137.575 422.549L124.301 422.549L124.301 434.341Z" fill="#9C1B1C" stroke="#9C1B1C" stroke-width="0.59" stroke-miterlimit="10"/>
<path d="M137.625 446.134L150.899 446.134L150.899 434.342L137.625 434.342L137.625 446.134Z" fill="#9C1B1C" stroke="#9C1B1C" stroke-width="0.59" stroke-miterlimit="10"/>
<path d="M137.575 434.341L150.849 434.341L150.849 422.549L137.575 422.549L137.575 434.341Z" fill="#9C1B1C" stroke="#9C1B1C" stroke-width="0.59" stroke-miterlimit="10"/>
<path d="M124.301 422.578L137.575 422.578L137.575 410.785L124.301 410.785L124.301 422.578Z" fill="#9C1B1C" stroke="#9C1B1C" stroke-width="0.59" stroke-miterlimit="10"/>
<path d="M137.625 410.785L150.899 410.785L150.899 398.993L137.625 398.993L137.625 410.785Z" fill="#9C1B1C" stroke="#9C1B1C" stroke-width="0.59" stroke-miterlimit="10"/>
<path d="M137.575 398.994L150.849 398.994L150.849 387.202L137.575 387.202L137.575 398.994Z" fill="#9C1B1C" stroke="#9C1B1C" stroke-width="0.59" stroke-miterlimit="10"/>
<path d="M150.95 446.134L164.224 446.134L164.224 434.342L150.95 434.342L150.95 446.134Z" fill="#9C1B1C" stroke="#9C1B1C" stroke-width="0.59" stroke-miterlimit="10"/>
<path d="M150.95 457.896L164.224 457.896L164.224 446.104L150.95 446.104L150.95 457.896Z" fill="#9C1B1C" stroke="#9C1B1C" stroke-width="0.59" stroke-miterlimit="10"/>
<path d="M150.849 387.202L164.123 387.202L164.123 375.41L150.849 375.41L150.849 387.202Z" fill="#9C1B1C" stroke="#9C1B1C" stroke-width="0.59" stroke-miterlimit="10"/>
<path d="M150.849 398.994L164.123 398.994L164.123 387.202L150.849 387.202L150.849 398.994Z" fill="#9C1B1C" stroke="#9C1B1C" stroke-width="0.59" stroke-miterlimit="10"/>
<path d="M124.301 410.785L137.575 410.785L137.575 398.993L124.301 398.993L124.301 410.785Z" fill="#9C1B1C" stroke="#9C1B1C" stroke-width="0.59" stroke-miterlimit="10"/>
<path d="M111.027 250.747L124.301 250.747L124.301 238.955L111.027 238.955L111.027 250.747Z" fill="#9C1B1C" stroke="#9C1B1C" stroke-width="0.59" stroke-miterlimit="10"/>
<path d="M124.301 262.511L137.575 262.511L137.575 250.719L124.301 250.719L124.301 262.511Z" fill="#9C1B1C" stroke="#9C1B1C" stroke-width="0.59" stroke-miterlimit="10"/>
<path d="M137.625 274.303L150.899 274.303L150.899 262.511L137.625 262.511L137.625 274.303Z" fill="#9C1B1C" stroke="#9C1B1C" stroke-width="0.59" stroke-miterlimit="10"/>
<path d="M137.575 262.511L150.849 262.511L150.849 250.719L137.575 250.719L137.575 262.511Z" fill="#9C1B1C" stroke="#9C1B1C" stroke-width="0.59" stroke-miterlimit="10"/>
<path d="M124.301 250.747L137.575 250.747L137.575 238.955L124.301 238.955L124.301 250.747Z" fill="#9C1B1C" stroke="#9C1B1C" stroke-width="0.59" stroke-miterlimit="10"/>
<path d="M137.625 238.956L150.899 238.956L150.899 227.163L137.625 227.163L137.625 238.956Z" fill="#9C1B1C" stroke="#9C1B1C" stroke-width="0.59" stroke-miterlimit="10"/>
<path d="M137.575 227.164L150.849 227.164L150.849 215.372L137.575 215.372L137.575 227.164Z" fill="#9C1B1C" stroke="#9C1B1C" stroke-width="0.59" stroke-miterlimit="10"/>
<path d="M150.95 274.303L164.224 274.303L164.224 262.511L150.95 262.511L150.95 274.303Z" fill="#9C1B1C" stroke="#9C1B1C" stroke-width="0.59" stroke-miterlimit="10"/>
<path d="M150.95 286.065L164.224 286.065L164.224 274.273L150.95 274.273L150.95 286.065Z" fill="#9C1B1C" stroke="#9C1B1C" stroke-width="0.59" stroke-miterlimit="10"/>
<path d="M150.849 215.372L164.123 215.372L164.123 203.58L150.849 203.58L150.849 215.372Z" fill="#9C1B1C" stroke="#9C1B1C" stroke-width="0.59" stroke-miterlimit="10"/>
<path d="M150.849 227.164L164.123 227.164L164.123 215.372L150.849 215.372L150.849 227.164Z" fill="#9C1B1C" stroke="#9C1B1C" stroke-width="0.59" stroke-miterlimit="10"/>
<path d="M124.301 238.956L137.575 238.956L137.575 227.163L124.301 227.163L124.301 238.956Z" fill="#9C1B1C" stroke="#9C1B1C" stroke-width="0.59" stroke-miterlimit="10"/>
<path d="M138.093 1092.04L151.367 1092.04L151.367 1080.25L138.093 1080.25L138.093 1092.04Z" fill="#9C1B1C" stroke="#9C1B1C" stroke-width="0.59" stroke-miterlimit="10"/>
<path d="M138.042 1080.25L151.317 1080.25L151.317 1068.46L138.042 1068.46L138.042 1080.25Z" fill="#9C1B1C" stroke="#9C1B1C" stroke-width="0.59" stroke-miterlimit="10"/>
<path d="M151.316 1068.46L164.59 1068.46L164.59 1056.67L151.316 1056.67L151.316 1068.46Z" fill="#9C1B1C" stroke="#9C1B1C" stroke-width="0.59" stroke-miterlimit="10"/>
<path d="M151.316 1080.25L164.59 1080.25L164.59 1068.46L151.316 1068.46L151.316 1080.25Z" fill="#9C1B1C" stroke="#9C1B1C" stroke-width="0.59" stroke-miterlimit="10"/>
<path d="M124.768 1092.04L138.042 1092.04L138.042 1080.25L124.768 1080.25L124.768 1092.04Z" fill="#9C1B1C" stroke="#9C1B1C" stroke-width="0.59" stroke-miterlimit="10"/>
<path d="M66.5054 1091.84L52.8391 1091.84L52.8391 1080.12L66.5054 1080.12L66.5054 1091.84Z" fill="#9C1B1C" stroke="#9C1B1C" stroke-width="0.59" stroke-miterlimit="10"/>
<path d="M66.5574 1080.12L52.8911 1080.12L52.8911 1068.39L66.5574 1068.39L66.5574 1080.12Z" fill="#9C1B1C" stroke="#9C1B1C" stroke-width="0.59" stroke-miterlimit="10"/>
<path d="M52.8906 1068.39L39.2244 1068.39L39.2244 1056.67L52.8906 1056.67L52.8906 1068.39Z" fill="#9C1B1C" stroke="#9C1B1C" stroke-width="0.59" stroke-miterlimit="10"/>
<path d="M52.8906 1080.12L39.2244 1080.12L39.2244 1068.39L52.8906 1068.39L52.8906 1080.12Z" fill="#9C1B1C" stroke="#9C1B1C" stroke-width="0.59" stroke-miterlimit="10"/>
<path d="M80.2239 1091.84L66.5576 1091.84L66.5576 1080.12L80.2239 1080.12L80.2239 1091.84Z" fill="#9C1B1C" stroke="#9C1B1C" stroke-width="0.59" stroke-miterlimit="10"/>
<path d="M111.027 78.8867L124.301 78.8867L124.301 67.0947L111.027 67.0947L111.027 78.8867Z" fill="#9C1B1C" stroke="#9C1B1C" stroke-width="0.59" stroke-miterlimit="10"/>
<path d="M124.301 90.6787L137.575 90.6787L137.575 78.8867L124.301 78.8867L124.301 90.6787Z" fill="#9C1B1C" stroke="#9C1B1C" stroke-width="0.59" stroke-miterlimit="10"/>
<path d="M137.625 102.471L150.899 102.471L150.899 90.679L137.625 90.679L137.625 102.471Z" fill="#9C1B1C" stroke="#9C1B1C" stroke-width="0.59" stroke-miterlimit="10"/>
<path d="M137.575 90.6787L150.849 90.6787L150.849 78.8867L137.575 78.8867L137.575 90.6787Z" fill="#9C1B1C" stroke="#9C1B1C" stroke-width="0.59" stroke-miterlimit="10"/>
<path d="M124.301 78.8867L137.575 78.8867L137.575 67.0947L124.301 67.0947L124.301 78.8867Z" fill="#9C1B1C" stroke="#9C1B1C" stroke-width="0.59" stroke-miterlimit="10"/>
<path d="M137.625 67.124L150.899 67.124L150.899 55.332L137.625 55.332L137.625 67.124Z" fill="#9C1B1C" stroke="#9C1B1C" stroke-width="0.59" stroke-miterlimit="10"/>
<path d="M137.575 55.332L150.849 55.332L150.849 43.5398L137.575 43.5398L137.575 55.332Z" fill="#9C1B1C" stroke="#9C1B1C" stroke-width="0.59" stroke-miterlimit="10"/>
<path d="M150.95 102.471L164.224 102.471L164.224 90.679L150.95 90.679L150.95 102.471Z" fill="#9C1B1C" stroke="#9C1B1C" stroke-width="0.59" stroke-miterlimit="10"/>
<path d="M150.95 114.234L164.224 114.234L164.224 102.442L150.95 102.442L150.95 114.234Z" fill="#9C1B1C" stroke="#9C1B1C" stroke-width="0.59" stroke-miterlimit="10"/>
<path d="M150.849 43.5391L164.123 43.5391L164.123 31.747L150.849 31.747L150.849 43.5391Z" fill="#9C1B1C" stroke="#9C1B1C" stroke-width="0.59" stroke-miterlimit="10"/>
<path d="M150.849 55.332L164.123 55.332L164.123 43.5398L150.849 43.5398L150.849 55.332Z" fill="#9C1B1C" stroke="#9C1B1C" stroke-width="0.59" stroke-miterlimit="10"/>
<path d="M124.301 67.124L137.575 67.124L137.575 55.332L124.301 55.332L124.301 67.124Z" fill="#9C1B1C" stroke="#9C1B1C" stroke-width="0.59" stroke-miterlimit="10"/>
<path d="M77.6643 78.8862L90.9385 78.8862L90.9385 67.0942L77.6643 67.0942L77.6643 78.8862Z" fill="#9C1B1C" stroke="#9C1B1C" stroke-width="0.59" stroke-miterlimit="10"/>
<path d="M64.3899 67.0952L77.6641 67.0952L77.6641 55.3032L64.3899 55.3032L64.3899 67.0952Z" fill="#9C1B1C" stroke="#9C1B1C" stroke-width="0.59" stroke-miterlimit="10"/>
<path d="M51.0654 55.3325L64.3396 55.3325L64.3396 43.5403L51.0654 43.5403L51.0654 55.3325Z" fill="#9C1B1C" stroke="#9C1B1C" stroke-width="0.59" stroke-miterlimit="10"/>
<path d="M51.1411 67.0952L64.4153 67.0952L64.4153 55.3032L51.1411 55.3032L51.1411 67.0952Z" fill="#9C1B1C" stroke="#9C1B1C" stroke-width="0.59" stroke-miterlimit="10"/>
<path d="M64.3899 78.8862L77.6641 78.8862L77.6641 67.0942L64.3899 67.0942L64.3899 78.8862Z" fill="#9C1B1C" stroke="#9C1B1C" stroke-width="0.59" stroke-miterlimit="10"/>
<path d="M51.0654 90.6792L64.3396 90.6792L64.3396 78.8872L51.0654 78.8872L51.0654 90.6792Z" fill="#9C1B1C" stroke="#9C1B1C" stroke-width="0.59" stroke-miterlimit="10"/>
<path d="M51.1411 102.472L64.4153 102.472L64.4153 90.6795L51.1411 90.6795L51.1411 102.472Z" fill="#9C1B1C" stroke="#9C1B1C" stroke-width="0.59" stroke-miterlimit="10"/>
<path d="M37.7405 55.3325L51.0146 55.3325L51.0146 43.5403L37.7405 43.5403L37.7405 55.3325Z" fill="#9C1B1C" stroke="#9C1B1C" stroke-width="0.59" stroke-miterlimit="10"/>
<path d="M37.7407 43.5679L51.0149 43.5679L51.0149 31.7759L37.7407 31.7758L37.7407 43.5679Z" fill="#9C1B1C" stroke="#9C1B1C" stroke-width="0.59" stroke-miterlimit="10"/>
<path d="M37.867 114.234L51.1411 114.234L51.1411 102.442L37.867 102.442L37.867 114.234Z" fill="#9C1B1C" stroke="#9C1B1C" stroke-width="0.59" stroke-miterlimit="10"/>
<path d="M37.867 102.472L51.1411 102.472L51.1411 90.6795L37.867 90.6795L37.867 102.472Z" fill="#9C1B1C" stroke="#9C1B1C" stroke-width="0.59" stroke-miterlimit="10"/>
<path d="M64.3899 90.6792L77.6641 90.6792L77.6641 78.8872L64.3899 78.8872L64.3899 90.6792Z" fill="#9C1B1C" stroke="#9C1B1C" stroke-width="0.59" stroke-miterlimit="10"/>
<path d="M77.7148 250.832L90.989 250.832L90.989 239.04L77.7148 239.04L77.7148 250.832Z" fill="#9C1B1C" stroke="#9C1B1C" stroke-width="0.59" stroke-miterlimit="10"/>
<path d="M64.4658 239.041L77.74 239.041L77.74 227.249L64.4658 227.249L64.4658 239.041Z" fill="#9C1B1C" stroke="#9C1B1C" stroke-width="0.59" stroke-miterlimit="10"/>
<path d="M51.1416 227.249L64.4158 227.249L64.4158 215.457L51.1416 215.457L51.1416 227.249Z" fill="#9C1B1C" stroke="#9C1B1C" stroke-width="0.59" stroke-miterlimit="10"/>
<path d="M51.1919 239.041L64.4661 239.041L64.4661 227.249L51.1919 227.249L51.1919 239.041Z" fill="#9C1B1C" stroke="#9C1B1C" stroke-width="0.59" stroke-miterlimit="10"/>
<path d="M64.4658 250.832L77.74 250.832L77.74 239.04L64.4658 239.04L64.4658 250.832Z" fill="#9C1B1C" stroke="#9C1B1C" stroke-width="0.59" stroke-miterlimit="10"/>
<path d="M51.1414 262.596L64.4155 262.596L64.4155 250.804L51.1414 250.804L51.1414 262.596Z" fill="#9C1B1C" stroke="#9C1B1C" stroke-width="0.59" stroke-miterlimit="10"/>
<path d="M51.1919 274.389L64.4661 274.389L64.4661 262.597L51.1919 262.597L51.1919 274.389Z" fill="#9C1B1C" stroke="#9C1B1C" stroke-width="0.59" stroke-miterlimit="10"/>
<path d="M37.7913 227.249L51.0654 227.249L51.0654 215.457L37.7913 215.457L37.7913 227.249Z" fill="#9C1B1C" stroke="#9C1B1C" stroke-width="0.59" stroke-miterlimit="10"/>
<path d="M37.7913 215.485L51.0654 215.485L51.0654 203.693L37.7913 203.693L37.7913 215.485Z" fill="#9C1B1C" stroke="#9C1B1C" stroke-width="0.59" stroke-miterlimit="10"/>
<path d="M37.9177 286.18L51.1919 286.18L51.1919 274.388L37.9177 274.388L37.9177 286.18Z" fill="#9C1B1C" stroke="#9C1B1C" stroke-width="0.59" stroke-miterlimit="10"/>
<path d="M37.9177 274.389L51.1919 274.389L51.1919 262.597L37.9177 262.597L37.9177 274.389Z" fill="#9C1B1C" stroke="#9C1B1C" stroke-width="0.59" stroke-miterlimit="10"/>
<path d="M64.4658 262.596L77.74 262.596L77.74 250.804L64.4658 250.804L64.4658 262.596Z" fill="#9C1B1C" stroke="#9C1B1C" stroke-width="0.59" stroke-miterlimit="10"/>
<path d="M77.614 422.55L90.8882 422.55L90.8882 410.758L77.614 410.758L77.614 422.55Z" fill="#9C1B1C" stroke="#9C1B1C" stroke-width="0.59" stroke-miterlimit="10"/>
<path d="M64.3398 410.757L77.614 410.757L77.614 398.965L64.3398 398.965L64.3398 410.757Z" fill="#9C1B1C" stroke="#9C1B1C" stroke-width="0.59" stroke-miterlimit="10"/>
<path d="M51.0154 398.994L64.2896 398.994L64.2896 387.202L51.0154 387.202L51.0154 398.994Z" fill="#9C1B1C" stroke="#9C1B1C" stroke-width="0.59" stroke-miterlimit="10"/>
<path d="M51.0657 410.757L64.3398 410.757L64.3398 398.965L51.0657 398.965L51.0657 410.757Z" fill="#9C1B1C" stroke="#9C1B1C" stroke-width="0.59" stroke-miterlimit="10"/>
<path d="M64.3398 422.55L77.614 422.55L77.614 410.758L64.3398 410.758L64.3398 422.55Z" fill="#9C1B1C" stroke="#9C1B1C" stroke-width="0.59" stroke-miterlimit="10"/>
<path d="M51.0154 434.342L64.2896 434.342L64.2896 422.55L51.0154 422.55L51.0154 434.342Z" fill="#9C1B1C" stroke="#9C1B1C" stroke-width="0.59" stroke-miterlimit="10"/>
<path d="M51.0657 446.134L64.3398 446.134L64.3398 434.342L51.0657 434.342L51.0657 446.134Z" fill="#9C1B1C" stroke="#9C1B1C" stroke-width="0.59" stroke-miterlimit="10"/>
<path d="M37.6907 398.994L50.9648 398.994L50.9648 387.202L37.6907 387.202L37.6907 398.994Z" fill="#9C1B1C" stroke="#9C1B1C" stroke-width="0.59" stroke-miterlimit="10"/>
<path d="M37.6907 387.231L50.9648 387.231L50.9648 375.439L37.6907 375.439L37.6907 387.231Z" fill="#9C1B1C" stroke="#9C1B1C" stroke-width="0.59" stroke-miterlimit="10"/>
<path d="M37.8169 457.897L51.0911 457.897L51.0911 446.105L37.8169 446.105L37.8169 457.897Z" fill="#9C1B1C" stroke="#9C1B1C" stroke-width="0.59" stroke-miterlimit="10"/>
<path d="M37.8169 446.134L51.0911 446.134L51.0911 434.342L37.8169 434.342L37.8169 446.134Z" fill="#9C1B1C" stroke="#9C1B1C" stroke-width="0.59" stroke-miterlimit="10"/>
<path d="M64.3398 434.342L77.614 434.342L77.614 422.55L64.3398 422.55L64.3398 434.342Z" fill="#9C1B1C" stroke="#9C1B1C" stroke-width="0.59" stroke-miterlimit="10"/>
<path d="M95.6575 1082.13H107.872V1069.34H95.6575V1082.13Z" fill="#9C1B1C"/>
<path d="M83.418 1069.34H95.6322L95.6322 1056.54H83.418V1069.34Z" fill="#9C1B1C"/>
<path d="M107.846 1069.34H120.061V1056.54H107.846V1069.34Z" fill="#9C1B1C"/>
<path d="M120.061 1056.54H132.275L132.275 1043.74H120.061L120.061 1056.54Z" fill="#9C1B1C"/>
<path d="M107.846 1056.54H120.061L120.061 1043.74H107.846V1056.54Z" fill="#9C1B1C"/>
<path d="M95.6322 1069.34H107.846V1056.54H95.6322L95.6322 1069.34Z" fill="#9C1B1C"/>
<path d="M83.418 1018.84H95.6322V1006.04H83.418L83.418 1018.84Z" fill="#9C1B1C"/>
<path d="M95.6322 1018.84H107.846V1006.04H95.6322V1018.84Z" fill="#9C1B1C"/>
<path d="M107.846 1018.84H120.061V1006.04H107.846V1018.84Z" fill="#9C1B1C"/>
<path d="M95.6322 1006.04H107.846V993.246H95.6322L95.6322 1006.04Z" fill="#9C1B1C"/>
<path d="M95.6322 1031.63H107.846V1018.84H95.6322L95.6322 1031.63Z" fill="#9C1B1C"/>
<path d="M83.418 1056.54H95.6322V1043.74H83.418L83.418 1056.54Z" fill="#9C1B1C"/>
<path d="M71.2037 1056.54H83.418L83.418 1043.74H71.2037L71.2037 1056.54Z" fill="#9C1B1C"/>
<path d="M120.061 1043.74H132.275V1030.95H120.061V1043.74Z" fill="#9C1B1C"/>
<path d="M144.489 1030.95H156.703V1018.15L144.489 1018.15V1030.95Z" fill="#9C1B1C"/>
<path d="M132.275 1030.95H144.489V1018.15H132.275V1030.95Z" fill="#9C1B1C"/>
<path d="M132.275 1043.74H144.489V1030.95H132.275V1043.74Z" fill="#9C1B1C"/>
<path d="M58.9895 1043.74H71.2037L71.2037 1030.95H58.9895V1043.74Z" fill="#9C1B1C"/>
<path d="M71.2037 1043.74H83.418L83.418 1030.95H71.2037L71.2037 1043.74Z" fill="#9C1B1C"/>
<path d="M58.9895 1030.95H71.2037L71.2037 1018.15H58.9895L58.9895 1030.95Z" fill="#9C1B1C"/>
<path d="M46.7752 1030.95L58.9895 1030.95L58.9895 1018.15H46.7752L46.7752 1030.95Z" fill="#9C1B1C"/>
<path d="M144.489 1018.12H156.703V1005.33H144.489V1018.12Z" fill="#9C1B1C"/>
<path d="M58.9895 1005.33H71.2037V992.529H58.9895L58.9895 1005.33Z" fill="#9C1B1C"/>
<path d="M132.275 1005.33H144.489V992.529H132.275V1005.33Z" fill="#9C1B1C"/>
<path d="M46.7752 1005.5H58.9895L58.9895 992.701H46.7752L46.7752 1005.5Z" fill="#9C1B1C"/>
<path d="M144.489 1005.33H156.703V992.529L144.489 992.529V1005.33Z" fill="#9C1B1C"/>
<path d="M46.7752 1018.12H58.9895L58.9895 1005.33L46.7752 1005.33L46.7752 1018.12Z" fill="#9C1B1C"/>
<path d="M95.607 954.14H107.821V941.344H95.607V954.14Z" fill="#9C1B1C"/>
<path d="M83.3928 966.936H95.607V954.14H83.3928V966.936Z" fill="#9C1B1C"/>
<path d="M71.1785 979.79H83.3927V966.994H71.1785L71.1785 979.79Z" fill="#9C1B1C"/>
<path d="M83.3927 979.733H95.607V966.936H83.3928L83.3927 979.733Z" fill="#9C1B1C"/>
<path d="M95.607 966.936H107.821L107.821 954.14H95.607V966.936Z" fill="#9C1B1C"/>
<path d="M107.846 979.79H120.061V966.994H107.846V979.79Z" fill="#9C1B1C"/>
<path d="M120.061 979.733H132.275V966.936H120.061V979.733Z" fill="#9C1B1C"/>
<path d="M71.1785 992.644H83.3927L83.3927 979.847H71.1785V992.644Z" fill="#9C1B1C"/>
<path d="M58.9895 992.644L71.2037 992.644L71.2038 979.847H58.9895L58.9895 992.644Z" fill="#9C1B1C"/>
<path d="M132.275 992.529H144.489V979.733H132.275V992.529Z" fill="#9C1B1C"/>
<path d="M120.061 992.529H132.275V979.733H120.061V992.529Z" fill="#9C1B1C"/>
<path d="M107.846 966.936H120.061V954.14H107.846V966.936Z" fill="#9C1B1C"/>
<path d="M111.733 933.196H125.007V921.403H111.733V933.196Z" fill="#9C1B1C"/>
<path d="M125.007 944.988H138.281L138.281 933.196H125.007L125.007 944.988Z" fill="#9C1B1C"/>
<path d="M138.332 956.751H151.606V944.959H138.332V956.751Z" fill="#9C1B1C"/>
<path d="M138.281 944.988H151.555V933.196H138.281L138.281 944.988Z" fill="#9C1B1C"/>
<path d="M125.007 933.196H138.281V921.403H125.007V933.196Z" fill="#9C1B1C"/>
<path d="M138.332 921.403H151.606V909.612H138.332V921.403Z" fill="#9C1B1C"/>
<path d="M138.281 909.612H151.555V897.819H138.281V909.612Z" fill="#9C1B1C"/>
<path d="M151.656 956.751H164.93V944.959H151.656V956.751Z" fill="#9C1B1C"/>
<path d="M151.656 968.514H164.93V956.722H151.656V968.514Z" fill="#9C1B1C"/>
<path d="M151.53 897.848H164.804L164.804 886.056H151.53V897.848Z" fill="#9C1B1C"/>
<path d="M151.53 909.612H164.804V897.819H151.53V909.612Z" fill="#9C1B1C"/>
<path d="M125.007 921.403H138.281V909.612H125.007L125.007 921.403Z" fill="#9C1B1C"/>
<path d="M95.5818 915.665H107.796V902.869H95.5818V915.665Z" fill="#9C1B1C"/>
<path d="M83.3675 902.869L95.5818 902.869L95.5818 890.073H83.3675V902.869Z" fill="#9C1B1C"/>
<path d="M107.771 902.869H119.985V890.073H107.771V902.869Z" fill="#9C1B1C"/>
<path d="M119.985 890.073H132.199V877.277H119.985V890.073Z" fill="#9C1B1C"/>
<path d="M107.771 890.073H119.985V877.277H107.771V890.073Z" fill="#9C1B1C"/>
<path d="M95.5818 902.869H107.796V890.073H95.5818L95.5818 902.869Z" fill="#9C1B1C"/>
<path d="M83.3675 852.373H95.5818V839.576H83.3675L83.3675 852.373Z" fill="#9C1B1C"/>
<path d="M95.5818 852.373H107.796V839.576H95.5818V852.373Z" fill="#9C1B1C"/>
<path d="M107.771 852.373H119.985V839.576H107.771V852.373Z" fill="#9C1B1C"/>
<path d="M95.5818 839.576H107.796V826.78H95.5818L95.5818 839.576Z" fill="#9C1B1C"/>
<path d="M95.5818 865.169H107.796V852.373H95.5818V865.169Z" fill="#9C1B1C"/>
<path d="M83.3675 890.073H95.5818V877.277H83.3675L83.3675 890.073Z" fill="#9C1B1C"/>
<path d="M71.1533 890.073H83.3675L83.3675 877.277H71.1533L71.1533 890.073Z" fill="#9C1B1C"/>
<path d="M119.985 877.277H132.199V864.48H119.985V877.277Z" fill="#9C1B1C"/>
<path d="M144.439 864.48H156.653V851.684H144.439V864.48Z" fill="#9C1B1C"/>
<path d="M132.199 864.48H144.414V851.684H132.199V864.48Z" fill="#9C1B1C"/>
<path d="M132.199 877.277L144.414 877.277V864.48H132.199V877.277Z" fill="#9C1B1C"/>
<path d="M58.939 877.277H71.1533L71.1533 864.48H58.939V877.277Z" fill="#9C1B1C"/>
<path d="M71.1533 877.277H83.3675L83.3675 864.48H71.1533L71.1533 877.277Z" fill="#9C1B1C"/>
<path d="M58.939 864.48H71.1533L71.1533 851.684H58.939L58.939 864.48Z" fill="#9C1B1C"/>
<path d="M46.6995 864.48H58.9138V851.684H46.6995L46.6995 864.48Z" fill="#9C1B1C"/>
<path d="M144.439 851.655H156.653V838.859H144.439V851.655Z" fill="#9C1B1C"/>
<path d="M58.939 838.859H71.1533V826.063H58.939L58.939 838.859Z" fill="#9C1B1C"/>
<path d="M132.199 838.859H144.414V826.063H132.199L132.199 838.859Z" fill="#9C1B1C"/>
<path d="M46.7248 839.031H58.939L58.939 826.235H46.7248L46.7248 839.031Z" fill="#9C1B1C"/>
<path d="M144.439 838.859H156.653V826.063H144.439V838.859Z" fill="#9C1B1C"/>
<path d="M46.6995 851.655H58.9138L58.9138 838.859H46.6995L46.6995 851.655Z" fill="#9C1B1C"/>
<path d="M95.5565 787.674H107.771V774.878L95.5565 774.878V787.674Z" fill="#9C1B1C"/>
<path d="M83.3423 800.47H95.5565L95.5565 787.674L83.3423 787.674V800.47Z" fill="#9C1B1C"/>
<path d="M71.128 813.324H83.3423V800.528H71.128L71.128 813.324Z" fill="#9C1B1C"/>
<path d="M83.3423 813.267H95.5565V800.47H83.3423L83.3423 813.267Z" fill="#9C1B1C"/>
<path d="M95.5565 800.47H107.771L107.771 787.674H95.5565L95.5565 800.47Z" fill="#9C1B1C"/>
<path d="M107.771 813.324H119.985V800.528H107.771V813.324Z" fill="#9C1B1C"/>
<path d="M119.985 813.267H132.199V800.47H119.985V813.267Z" fill="#9C1B1C"/>
<path d="M71.128 826.178H83.3423L83.3423 813.381H71.128V826.178Z" fill="#9C1B1C"/>
<path d="M58.939 826.178H71.1533L71.1533 813.381H58.939L58.939 826.178Z" fill="#9C1B1C"/>
<path d="M132.199 826.063H144.414V813.267H132.199V826.063Z" fill="#9C1B1C"/>
<path d="M119.985 826.063L132.199 826.063V813.267H119.985V826.063Z" fill="#9C1B1C"/>
<path d="M107.771 800.47H119.985L119.985 787.674L107.771 787.674L107.771 800.47Z" fill="#9C1B1C"/>
<path d="M95.6322 744.351H107.846V731.554H95.6322V744.351Z" fill="#9C1B1C"/>
<path d="M83.3928 731.554H95.607V718.758H83.3928L83.3928 731.554Z" fill="#9C1B1C"/>
<path d="M107.821 731.554H120.036V718.758H107.821V731.554Z" fill="#9C1B1C"/>
<path d="M120.036 718.758L132.25 718.758L132.25 705.962H120.036V718.758Z" fill="#9C1B1C"/>
<path d="M107.821 718.758H120.036V705.962H107.821V718.758Z" fill="#9C1B1C"/>
<path d="M95.607 731.554H107.821V718.758H95.607V731.554Z" fill="#9C1B1C"/>
<path d="M83.3928 681.058H95.607L95.607 668.262H83.3928V681.058Z" fill="#9C1B1C"/>
<path d="M95.607 681.058H107.821V668.262H95.607L95.607 681.058Z" fill="#9C1B1C"/>
<path d="M107.821 681.058H120.036L120.036 668.262H107.821V681.058Z" fill="#9C1B1C"/>
<path d="M95.607 668.262H107.821L107.821 655.465H95.607V668.262Z" fill="#9C1B1C"/>
<path d="M95.607 693.854H107.821V681.058H95.607V693.854Z" fill="#9C1B1C"/>
<path d="M83.3928 718.758H95.607V705.962H83.3928V718.758Z" fill="#9C1B1C"/>
<path d="M71.1785 718.758H83.3928V705.962H71.1785V718.758Z" fill="#9C1B1C"/>
<path d="M120.036 705.962H132.25V693.165H120.036L120.036 705.962Z" fill="#9C1B1C"/>
<path d="M144.464 693.165H156.678V680.369H144.464V693.165Z" fill="#9C1B1C"/>
<path d="M132.25 693.165H144.464V680.369H132.25V693.165Z" fill="#9C1B1C"/>
<path d="M132.25 705.962H144.464V693.165H132.25V705.962Z" fill="#9C1B1C"/>
<path d="M58.9643 705.962H71.1785V693.165H58.9643V705.962Z" fill="#9C1B1C"/>
<path d="M71.1785 705.962H83.3928L83.3928 693.165H71.1785V705.962Z" fill="#9C1B1C"/>
<path d="M58.9643 693.165H71.1785L71.1785 680.369H58.9643L58.9643 693.165Z" fill="#9C1B1C"/>
<path d="M46.75 693.165H58.9643L58.9643 680.369H46.75L46.75 693.165Z" fill="#9C1B1C"/>
<path d="M144.464 680.369H156.678V667.573H144.464V680.369Z" fill="#9C1B1C"/>
<path d="M58.9643 667.573L71.1785 667.573V654.777L58.9643 654.777V667.573Z" fill="#9C1B1C"/>
<path d="M132.25 667.573H144.464V654.777H132.25V667.573Z" fill="#9C1B1C"/>
<path d="M46.75 667.716H58.9643L58.9643 654.92H46.75L46.75 667.716Z" fill="#9C1B1C"/>
<path d="M144.464 667.573H156.678V654.777H144.464V667.573Z" fill="#9C1B1C"/>
<path d="M46.75 680.369H58.9643L58.9643 667.573H46.75L46.75 680.369Z" fill="#9C1B1C"/>
<path d="M95.5818 616.359H107.796V603.563H95.5818V616.359Z" fill="#9C1B1C"/>
<path d="M83.3675 629.155H95.5818L95.5818 616.359L83.3675 616.359V629.155Z" fill="#9C1B1C"/>
<path d="M71.1533 642.009H83.3675V629.213H71.1533L71.1533 642.009Z" fill="#9C1B1C"/>
<path d="M83.3675 641.952H95.5818V629.155H83.3675L83.3675 641.952Z" fill="#9C1B1C"/>
<path d="M95.5818 629.155H107.796L107.796 616.359H95.5818L95.5818 629.155Z" fill="#9C1B1C"/>
<path d="M107.796 642.009H120.01V629.213H107.796V642.009Z" fill="#9C1B1C"/>
<path d="M120.036 641.952H132.25V629.155H120.036V641.952Z" fill="#9C1B1C"/>
<path d="M71.1533 654.863H83.3675L83.3675 642.066H71.1533V654.863Z" fill="#9C1B1C"/>
<path d="M58.9643 654.863L71.1785 654.863L71.1785 642.066H58.9643L58.9643 654.863Z" fill="#9C1B1C"/>
<path d="M132.25 654.748H144.464V641.952L132.25 641.952V654.748Z" fill="#9C1B1C"/>
<path d="M120.036 654.748H132.25V641.952H120.036V654.748Z" fill="#9C1B1C"/>
<path d="M107.796 629.155H120.01L120.01 616.359H107.796L107.796 629.155Z" fill="#9C1B1C"/>
<path d="M95.6323 573.064H107.847V560.268H95.6323V573.064Z" fill="#9C1B1C"/>
<path d="M83.418 560.239H95.6323V547.443H83.418L83.418 560.239Z" fill="#9C1B1C"/>
<path d="M107.847 560.239H120.061V547.443H107.847V560.239Z" fill="#9C1B1C"/>
<path d="M120.036 547.443H132.25L132.25 534.647H120.036L120.036 547.443Z" fill="#9C1B1C"/>
<path d="M107.847 547.443H120.061L120.061 534.647H107.847L107.847 547.443Z" fill="#9C1B1C"/>
<path d="M95.6323 560.239H107.847V547.443H95.6323V560.239Z" fill="#9C1B1C"/>
<path d="M83.418 509.743H95.6323V496.947L83.418 496.947V509.743Z" fill="#9C1B1C"/>
<path d="M95.6323 509.743H107.847V496.947H95.6323V509.743Z" fill="#9C1B1C"/>
<path d="M107.847 509.743H120.061L120.061 496.947H107.847V509.743Z" fill="#9C1B1C"/>
<path d="M95.6323 496.947H107.847V484.15H95.6323V496.947Z" fill="#9C1B1C"/>
<path d="M95.6323 522.539H107.847V509.743H95.6323L95.6323 522.539Z" fill="#9C1B1C"/>
<path d="M83.418 547.443H95.6323V534.647H83.418V547.443Z" fill="#9C1B1C"/>
<path d="M71.2038 547.443H83.418V534.647H71.2038V547.443Z" fill="#9C1B1C"/>
<path d="M120.036 534.647H132.25V521.851H120.036V534.647Z" fill="#9C1B1C"/>
<path d="M144.489 521.851H156.703V509.054H144.489V521.851Z" fill="#9C1B1C"/>
<path d="M132.25 521.851L144.464 521.851V509.054L132.25 509.054V521.851Z" fill="#9C1B1C"/>
<path d="M132.25 534.647H144.464V521.851L132.25 521.851V534.647Z" fill="#9C1B1C"/>
<path d="M58.9895 534.647L71.2038 534.647L71.2038 521.851H58.9895L58.9895 534.647Z" fill="#9C1B1C"/>
<path d="M71.2038 534.647H83.418V521.851H71.2038L71.2038 534.647Z" fill="#9C1B1C"/>
<path d="M58.9895 521.851H71.2038V509.054H58.9895V521.851Z" fill="#9C1B1C"/>
<path d="M46.75 521.851H58.9643L58.9643 509.054L46.7501 509.054L46.75 521.851Z" fill="#9C1B1C"/>
<path d="M144.489 509.054H156.703V496.258H144.489V509.054Z" fill="#9C1B1C"/>
<path d="M58.9895 496.258H71.2038V483.462L58.9895 483.462V496.258Z" fill="#9C1B1C"/>
<path d="M132.25 496.258H144.464V483.462H132.25V496.258Z" fill="#9C1B1C"/>
<path d="M46.7753 496.402H58.9895L58.9895 483.605H46.7753L46.7753 496.402Z" fill="#9C1B1C"/>
<path d="M144.489 496.258H156.703L156.704 483.462L144.489 483.462V496.258Z" fill="#9C1B1C"/>
<path d="M46.7501 509.054L58.9643 509.054V496.258L46.7501 496.258L46.7501 509.054Z" fill="#9C1B1C"/>
<path d="M95.607 445.044L107.821 445.044V432.248L95.607 432.248V445.044Z" fill="#9C1B1C"/>
<path d="M83.3928 457.841L95.607 457.841V445.044L83.3928 445.044V457.841Z" fill="#9C1B1C"/>
<path d="M71.1785 470.694H83.3928V457.898H71.1785V470.694Z" fill="#9C1B1C"/>
<path d="M83.3928 470.666L95.607 470.666V457.869H83.3928V470.666Z" fill="#9C1B1C"/>
<path d="M95.607 457.841H107.821V445.044L95.607 445.044V457.841Z" fill="#9C1B1C"/>
<path d="M107.821 470.694H120.036V457.898H107.821V470.694Z" fill="#9C1B1C"/>
<path d="M120.036 470.666L132.25 470.666L132.25 457.869H120.036V470.666Z" fill="#9C1B1C"/>
<path d="M71.1785 483.548H83.3928L83.3928 470.752H71.1785L71.1785 483.548Z" fill="#9C1B1C"/>
<path d="M58.9895 483.548H71.2038L71.2038 470.752L58.9895 470.752L58.9895 483.548Z" fill="#9C1B1C"/>
<path d="M132.25 483.462H144.464V470.666L132.25 470.666V483.462Z" fill="#9C1B1C"/>
<path d="M120.036 483.462L132.25 483.462V470.666L120.036 470.666V483.462Z" fill="#9C1B1C"/>
<path d="M107.821 457.841L120.036 457.841V445.044L107.821 445.044V457.841Z" fill="#9C1B1C"/>
<path d="M111.758 765.18H125.032L125.032 753.388H111.758L111.758 765.18Z" fill="#9C1B1C"/>
<path d="M125.007 776.972H138.281L138.281 765.18H125.007V776.972Z" fill="#9C1B1C"/>
<path d="M138.332 788.764H151.606V776.972H138.332V788.764Z" fill="#9C1B1C"/>
<path d="M138.281 776.972H151.555V765.18H138.281L138.281 776.972Z" fill="#9C1B1C"/>
<path d="M125.007 765.18H138.281V753.388H125.007V765.18Z" fill="#9C1B1C"/>
<path d="M138.332 753.417H151.606V741.625H138.332V753.417Z" fill="#9C1B1C"/>
<path d="M138.281 741.625H151.555V729.833H138.281V741.625Z" fill="#9C1B1C"/>
<path d="M151.656 788.764H164.93V776.972H151.656V788.764Z" fill="#9C1B1C"/>
<path d="M151.656 800.528H164.93V788.736H151.656V800.528Z" fill="#9C1B1C"/>
<path d="M151.555 729.833H164.829V718.041H151.555V729.833Z" fill="#9C1B1C"/>
<path d="M151.555 741.625H164.829V729.833H151.555V741.625Z" fill="#9C1B1C"/>
<path d="M125.007 753.417H138.281V741.625H125.007V753.417Z" fill="#9C1B1C"/>
<path d="M111.758 594.583H125.032L125.032 582.791H111.758V594.583Z" fill="#9C1B1C"/>
<path d="M125.032 606.346H138.306V594.554L125.032 594.554V606.346Z" fill="#9C1B1C"/>
<path d="M138.357 618.138H151.631V606.346H138.357L138.357 618.138Z" fill="#9C1B1C"/>
<path d="M138.306 606.346H151.581V594.554H138.306V606.346Z" fill="#9C1B1C"/>
<path d="M125.032 594.583H138.306V582.791L125.032 582.791L125.032 594.583Z" fill="#9C1B1C"/>
<path d="M138.357 582.791H151.631V570.999H138.357V582.791Z" fill="#9C1B1C"/>
<path d="M138.306 570.999H151.581V559.206H138.306L138.306 570.999Z" fill="#9C1B1C"/>
<path d="M151.682 618.138H164.956V606.346H151.682V618.138Z" fill="#9C1B1C"/>
<path d="M151.682 629.902H164.956V618.11H151.682V629.902Z" fill="#9C1B1C"/>
<path d="M151.581 559.206L164.855 559.206L164.855 547.414H151.581L151.581 559.206Z" fill="#9C1B1C"/>
<path d="M151.581 570.999H164.855V559.206L151.581 559.206V570.999Z" fill="#9C1B1C"/>
<path d="M125.032 582.791L138.306 582.791L138.306 570.999L125.032 570.999V582.791Z" fill="#9C1B1C"/>
<path d="M78.4213 594.554H91.6954L91.6954 582.762H78.4213V594.554Z" fill="#9C1B1C"/>
<path d="M65.1471 582.762H78.4213V570.97H65.1471V582.762Z" fill="#9C1B1C"/>
<path d="M51.8225 570.999H65.0966V559.206H51.8225L51.8225 570.999Z" fill="#9C1B1C"/>
<path d="M51.8982 582.762H65.1724L65.1724 570.97H51.8982L51.8982 582.762Z" fill="#9C1B1C"/>
<path d="M65.1471 594.554H78.4213V582.762H65.1471L65.1471 594.554Z" fill="#9C1B1C"/>
<path d="M51.8225 606.346H65.0966L65.0966 594.554H51.8225L51.8225 606.346Z" fill="#9C1B1C"/>
<path d="M51.8982 618.138L65.1724 618.138V606.346H51.8982L51.8982 618.138Z" fill="#9C1B1C"/>
<path d="M38.4979 570.999H51.772L51.772 559.206H38.4979L38.4979 570.999Z" fill="#9C1B1C"/>
<path d="M38.4979 559.235H51.772L51.772 547.443H38.4979L38.4979 559.235Z" fill="#9C1B1C"/>
<path d="M38.624 629.901H51.8982L51.8982 618.109H38.624L38.624 629.901Z" fill="#9C1B1C"/>
<path d="M38.624 618.138H51.8982L51.8982 606.346H38.624L38.624 618.138Z" fill="#9C1B1C"/>
<path d="M65.1471 606.346H78.4213V594.554H65.1471V606.346Z" fill="#9C1B1C"/>
<path d="M78.3456 765.697H91.6197V753.905H78.3456L78.3456 765.697Z" fill="#9C1B1C"/>
<path d="M65.0714 753.905L78.3456 753.905V742.113H65.0714L65.0714 753.905Z" fill="#9C1B1C"/>
<path d="M51.7468 742.141H65.0209V730.349H51.7468L51.7468 742.141Z" fill="#9C1B1C"/>
<path d="M51.8225 753.905L65.0966 753.905L65.0966 742.113H51.8225L51.8225 753.905Z" fill="#9C1B1C"/>
<path d="M65.0714 765.697H78.3456L78.3456 753.905L65.0714 753.905L65.0714 765.697Z" fill="#9C1B1C"/>
<path d="M51.7468 777.489L65.0209 777.489V765.697H51.7468L51.7468 777.489Z" fill="#9C1B1C"/>
<path d="M51.8225 789.281H65.0966L65.0966 777.489H51.8225L51.8225 789.281Z" fill="#9C1B1C"/>
<path d="M38.4221 742.141H51.6963L51.6963 730.349H38.4221L38.4221 742.141Z" fill="#9C1B1C"/>
<path d="M38.4221 730.378H51.6963L51.6963 718.586H38.4221L38.4221 730.378Z" fill="#9C1B1C"/>
<path d="M38.5483 801.044H51.8225L51.8225 789.252H38.5483L38.5483 801.044Z" fill="#9C1B1C"/>
<path d="M38.5483 789.281H51.8225L51.8225 777.489H38.5483L38.5483 789.281Z" fill="#9C1B1C"/>
<path d="M65.0714 777.489H78.3456V765.697H65.0714V777.489Z" fill="#9C1B1C"/>
<path d="M78.3455 933.167H91.6197V921.375H78.3455L78.3455 933.167Z" fill="#9C1B1C"/>
<path d="M65.0714 921.403H78.3455V909.612H65.0714L65.0714 921.403Z" fill="#9C1B1C"/>
<path d="M51.7467 909.612H65.0209V897.819H51.7467L51.7467 909.612Z" fill="#9C1B1C"/>
<path d="M51.8225 921.403H65.0966L65.0966 909.612L51.8225 909.611L51.8225 921.403Z" fill="#9C1B1C"/>
<path d="M65.0714 933.167H78.3455L78.3455 921.375H65.0714L65.0714 933.167Z" fill="#9C1B1C"/>
<path d="M51.7467 944.959H65.0209V933.167H51.7467L51.7467 944.959Z" fill="#9C1B1C"/>
<path d="M51.8225 956.751H65.0966L65.0966 944.959H51.8225L51.8225 956.751Z" fill="#9C1B1C"/>
<path d="M38.4221 909.612H51.6963L51.6963 897.819H38.4221L38.4221 909.612Z" fill="#9C1B1C"/>
<path d="M38.4221 897.848H51.6963L51.6963 886.056H38.4221L38.4221 897.848Z" fill="#9C1B1C"/>
<path d="M38.5483 968.543H51.8225L51.8225 956.751H38.5483L38.5483 968.543Z" fill="#9C1B1C"/>
<path d="M38.5483 956.751H51.8225L51.8225 944.959H38.5483L38.5483 956.751Z" fill="#9C1B1C"/>
<path d="M65.0714 944.959H78.3455V933.167H65.0714V944.959Z" fill="#9C1B1C"/>
<path d="M95.6322 1069.34H83.418V1056.54M95.6322 1069.34L95.6322 1056.54M95.6322 1069.34H107.846M83.418 1056.54H95.6322M83.418 1056.54L83.418 1043.74M83.418 1056.54H71.2037L71.2037 1043.74M95.6322 1056.54H107.846M95.6322 1056.54V1043.74H83.418M107.846 1069.34H120.061V1056.54M107.846 1069.34V1056.54M107.846 1056.54H120.061M107.846 1056.54V1043.74H120.061M120.061 1056.54H132.275L132.275 1043.74M120.061 1056.54L120.061 1043.74M120.061 1043.74H132.275M120.061 1043.74V1030.95H132.275M132.275 1043.74V1030.95M132.275 1043.74H144.489V1030.95M95.6322 1018.84H83.418L83.418 1006.04H95.6322M95.6322 1018.84V1006.04M95.6322 1018.84H107.846M95.6322 1018.84L95.6322 1031.63H107.846V1018.84M95.6322 1006.04H107.846M95.6322 1006.04L95.6322 993.246H107.846V1006.04M107.846 1018.84V1006.04M107.846 1018.84H120.061V1006.04H107.846M83.418 1043.74H71.2037M83.418 1043.74L83.418 1030.95H71.2037M71.2037 1043.74H58.9895V1030.95M71.2037 1043.74L71.2037 1030.95M132.275 1030.95H144.489M132.275 1030.95V1018.15H144.489M144.489 1030.95H156.703V1018.15L144.489 1018.15M144.489 1030.95V1018.15M58.9895 1030.95H71.2037M58.9895 1030.95L58.9895 1018.15M58.9895 1030.95L46.7752 1030.95L46.7752 1018.15H58.9895M71.2037 1030.95L71.2037 1018.15H58.9895M144.489 1005.33V1018.12H156.703V1005.33M144.489 1005.33H156.703M144.489 1005.33H132.275V992.529M144.489 1005.33V992.529M156.703 1005.33V992.529L144.489 992.529M58.9895 1005.33H71.2037V992.529H58.9895L58.9895 1005.33ZM58.9895 1005.33L46.7752 1005.33L46.7752 1018.12H58.9895L58.9895 1005.33ZM132.275 992.529H144.489M132.275 992.529V979.733M132.275 992.529H120.061V979.733M144.489 992.529V979.733H132.275M107.821 954.14H95.607M107.821 954.14V941.344H95.607V954.14M107.821 954.14L107.821 966.936H95.607M95.607 954.14H83.3928V966.936M95.607 954.14V966.936M95.607 966.936H83.3928M95.607 966.936V979.733H83.3927L83.3928 966.936M132.275 979.733H120.061M132.275 979.733V966.936H120.061M120.061 979.733V966.936M120.061 966.936H107.846V954.14H120.061V966.936ZM125.007 933.196H111.733V921.403H125.007M125.007 933.196V921.403M125.007 933.196L125.007 944.988H138.281M125.007 933.196H138.281M125.007 921.403H138.281M125.007 921.403L125.007 909.612H138.281M138.281 944.988L138.281 933.196M138.281 944.988H151.555V933.196H138.281M138.281 933.196V921.403M138.281 921.403V909.612M138.281 909.612H151.555V897.819H138.281V909.612ZM95.5818 902.869V915.665H107.796V902.869M95.5818 902.869H107.796M95.5818 902.869L83.3675 902.869V890.073M95.5818 902.869L95.5818 890.073M107.796 902.869V890.073H95.5818M83.3675 890.073H95.5818M83.3675 890.073L83.3675 877.277M83.3675 890.073H71.1533L71.1533 877.277M95.5818 890.073V877.277H83.3675M107.771 890.073V902.869H119.985V890.073M107.771 890.073H119.985M107.771 890.073V877.277H119.985M119.985 890.073H132.199V877.277M119.985 890.073V877.277M119.985 877.277H132.199M119.985 877.277V864.48H132.199M132.199 877.277V864.48M132.199 877.277L144.414 877.277V864.48M95.5818 852.373H83.3675L83.3675 839.576H95.5818M95.5818 852.373V839.576M95.5818 852.373H107.796M95.5818 852.373V865.169H107.796V852.373M95.5818 839.576H107.796M95.5818 839.576L95.5818 826.78H107.796V839.576M107.796 852.373V839.576M83.3675 877.277H71.1533M83.3675 877.277L83.3675 864.48H71.1533M71.1533 877.277H58.939V864.48M71.1533 877.277L71.1533 864.48M132.199 864.48H144.414M132.199 864.48V851.684H144.414V864.48M58.939 864.48H71.1533M58.939 864.48L58.939 851.684H71.1533L71.1533 864.48M144.439 838.859V851.655H156.653V838.859M144.439 838.859H156.653M144.439 838.859V826.063H156.653V838.859M132.199 826.063L132.199 838.859H144.414V826.063M132.199 826.063H144.414M132.199 826.063V813.267M132.199 826.063L119.985 826.063V813.267M144.414 826.063V813.267H132.199M107.771 787.674H95.5565M107.771 787.674V774.878L95.5565 774.878V787.674M107.771 787.674L107.771 800.47M107.771 787.674L119.985 787.674L119.985 800.47M95.5565 787.674L83.3423 787.674V800.47M95.5565 787.674L95.5565 800.47M95.5565 800.47H83.3423M95.5565 800.47V813.267H83.3423L83.3423 800.47M95.5565 800.47H107.771M107.771 800.47H119.985M132.199 813.267H119.985M132.199 813.267V800.47H119.985M119.985 813.267V800.47M95.607 731.554H83.3928L83.3928 718.758M95.607 731.554V718.758M95.607 731.554H107.821M83.3928 718.758H95.607M83.3928 718.758V705.962M83.3928 718.758H71.1785V705.962M95.607 718.758H107.821M95.607 718.758V705.962H83.3928M107.821 731.554H120.036V718.758M107.821 731.554V718.758M107.821 718.758H120.036M107.821 718.758V705.962H120.036M120.036 718.758L132.25 718.758L132.25 705.962M120.036 718.758V705.962M120.036 705.962H132.25M120.036 705.962L120.036 693.165H132.25M132.25 705.962V693.165M132.25 705.962H144.464V693.165M95.607 681.058H83.3928V668.262H95.607M95.607 681.058L95.607 668.262M95.607 681.058H107.821M95.607 681.058V693.854H107.821V681.058M95.607 668.262H107.821M95.607 668.262V655.465H107.821L107.821 668.262M107.821 681.058V668.262M107.821 681.058H120.036L120.036 668.262H107.821M83.3928 705.962H71.1785M83.3928 705.962L83.3928 693.165H71.1785M71.1785 705.962H58.9643V693.165M71.1785 705.962V693.165M132.25 693.165H144.464M132.25 693.165V680.369H144.464M144.464 693.165H156.678V680.369M144.464 693.165V680.369M144.464 680.369H156.678M144.464 680.369V667.573M156.678 680.369V667.573M58.9643 693.165H71.1785M58.9643 693.165L58.9643 680.369M58.9643 693.165H46.75L46.75 680.369M71.1785 693.165L71.1785 680.369H58.9643M58.9643 680.369H46.75M58.9643 680.369L58.9643 667.573M46.75 680.369L46.75 667.573H58.9643M144.464 667.573H156.678M144.464 667.573H132.25V654.777H144.464M144.464 667.573V654.777M156.678 667.573V654.777H144.464M58.9643 667.573L71.1785 667.573V654.777L58.9643 654.777V667.573ZM107.796 616.359H95.5818M107.796 616.359V603.563H95.5818V616.359M107.796 616.359L107.796 629.155M107.796 616.359H120.01L120.01 629.155H107.796M95.5818 616.359L83.3675 616.359V629.155M95.5818 616.359L95.5818 629.155M95.5818 629.155H83.3675M95.5818 629.155V641.952H83.3675L83.3675 629.155M95.5818 629.155H107.796M132.25 641.952H120.036M132.25 641.952V629.155H120.036V641.952M132.25 641.952V654.748M132.25 641.952L144.464 641.952V654.748H132.25M120.036 641.952V654.748H132.25M95.6323 560.239H83.418L83.418 547.443M95.6323 560.239V547.443M95.6323 560.239H107.847M83.418 547.443H95.6323M83.418 547.443V534.647M83.418 547.443H71.2038V534.647M95.6323 547.443H107.847M95.6323 547.443V534.647H83.418M107.847 560.239H120.061V547.443M107.847 560.239V547.443M107.847 547.443H120.061M107.847 547.443L107.847 534.647H120.061L120.061 547.443M120.036 534.647L120.036 547.443H132.25L132.25 534.647M120.036 534.647H132.25M120.036 534.647V521.851H132.25M132.25 534.647V521.851M132.25 534.647H144.464V521.851M95.6323 509.743H83.418V496.947L95.6323 496.947M95.6323 509.743V496.947M95.6323 509.743H107.847M95.6323 509.743L95.6323 522.539H107.847V509.743M95.6323 496.947H107.847M95.6323 496.947V484.15H107.847V496.947M107.847 509.743V496.947M107.847 509.743H120.061L120.061 496.947H107.847M83.418 534.647H71.2038M83.418 534.647V521.851H71.2038M71.2038 534.647L58.9895 534.647L58.9895 521.851M71.2038 534.647L71.2038 521.851M132.25 521.851L144.464 521.851M132.25 521.851V509.054L144.464 509.054V521.851M144.489 509.054V521.851H156.703V509.054M144.489 509.054H156.703M144.489 509.054V496.258M156.703 509.054V496.258M58.9895 521.851H71.2038M58.9895 521.851V509.054H71.2038V521.851M46.7501 509.054L46.75 521.851H58.9643L58.9643 509.054M46.7501 509.054L58.9643 509.054M46.7501 509.054L46.7501 496.258L58.9643 496.258V509.054M144.489 496.258H156.703M144.489 496.258V483.462L156.704 483.462L156.703 496.258M132.25 483.462V496.258H144.464V483.462M132.25 483.462H144.464M132.25 483.462V470.666M132.25 483.462L120.036 483.462V470.666M144.464 483.462V470.666L132.25 470.666M107.821 445.044L95.607 445.044M107.821 445.044V432.248L95.607 432.248V445.044M107.821 445.044V457.841M107.821 445.044L120.036 445.044V457.841L107.821 457.841M95.607 445.044L83.3928 445.044V457.841L95.607 457.841M95.607 445.044V457.841M95.607 457.841H107.821M132.25 470.666L120.036 470.666M132.25 470.666L132.25 457.869H120.036V470.666M138.281 776.972H125.007V765.18M138.281 776.972L138.281 765.18M138.281 776.972H151.555V765.18H138.281M125.007 765.18H138.281M125.007 765.18V753.388H138.281V765.18M151.555 741.625H138.281M151.555 741.625V729.833M151.555 741.625H164.829V729.833M138.281 741.625V729.833H151.555M138.281 741.625H125.007V753.417H138.281V741.625ZM151.555 729.833H164.829M151.555 729.833V718.041H164.829V729.833M125.032 594.583H111.758V582.791H125.032M125.032 594.583L125.032 582.791M125.032 594.583H138.306V582.791M125.032 582.791L138.306 582.791M125.032 582.791V570.999L138.306 570.999M138.306 606.346H125.032V594.554L138.306 594.554M138.306 606.346V594.554M138.306 606.346H151.581V594.554H138.306M138.306 582.791L138.306 570.999M151.581 570.999H138.306M151.581 570.999V559.206M151.581 570.999H164.855V559.206M138.306 570.999L138.306 559.206H151.581M151.581 559.206L164.855 559.206M151.581 559.206L151.581 547.414H164.855L164.855 559.206M78.4213 594.554H91.6954L91.6954 582.762H78.4213M78.4213 594.554V582.762M78.4213 594.554H65.1471M78.4213 594.554V606.346H65.1471V594.554M78.4213 582.762H65.1471M78.4213 582.762V570.97H65.1471V582.762M65.1471 582.762L65.1471 594.554M51.8982 618.138L65.1724 618.138V606.346H51.8982M51.8982 618.138L51.8982 606.346M51.8982 618.138H38.624L38.624 606.346H51.8982M78.3456 765.697H91.6197V753.905H78.3456M78.3456 765.697L78.3456 753.905M78.3456 765.697H65.0714M78.3456 765.697V777.489H65.0714V765.697M78.3456 753.905L65.0714 753.905M78.3456 753.905V742.113H65.0714L65.0714 753.905M65.0714 753.905L65.0714 765.697M51.8225 789.281H65.0966L65.0966 777.489H51.8225M51.8225 789.281L51.8225 777.489M51.8225 789.281H38.5483L38.5483 777.489H51.8225M78.3455 933.167H91.6197V921.375H78.3455M78.3455 933.167L78.3455 921.375M78.3455 933.167H65.0714M78.3455 933.167V944.959H65.0714V933.167M78.3455 921.375H65.0714L65.0714 933.167M51.8225 956.751H65.0966L65.0966 944.959H51.8225M51.8225 956.751L51.8225 944.959M51.8225 956.751H38.5483M51.8225 956.751L51.8225 968.543H38.5483L38.5483 956.751M51.8225 944.959H38.5483L38.5483 956.751M107.872 1082.13H95.6575V1069.34H107.872V1082.13ZM58.9895 1005.5H46.7752L46.7752 992.701H58.9895L58.9895 1005.5ZM83.3927 979.79H71.1785L71.1785 966.994H83.3927V979.79ZM120.061 979.79H107.846V966.994H120.061V979.79ZM83.3927 992.644H71.1785V979.847H83.3927L83.3927 992.644ZM71.2037 992.644L58.9895 992.644L58.9895 979.847H71.2038L71.2037 992.644ZM151.606 956.751H138.332V944.959H151.606V956.751ZM151.606 921.403H138.332V909.612H151.606V921.403ZM164.93 956.751H151.656V944.959H164.93V956.751ZM164.93 968.514H151.656V956.722H164.93V968.514ZM164.804 897.848H151.53V886.056H164.804L164.804 897.848ZM164.804 909.612H151.53V897.819H164.804V909.612ZM119.985 852.373H107.771V839.576H119.985V852.373ZM156.653 864.48H144.439V851.684H156.653V864.48ZM58.9138 864.48H46.6995L46.6995 851.684H58.9138V864.48ZM71.1533 838.859H58.939L58.939 826.063H71.1533V838.859ZM58.939 839.031H46.7248L46.7248 826.235H58.939L58.939 839.031ZM58.9138 851.655H46.6995L46.6995 838.859H58.9138L58.9138 851.655ZM83.3423 813.324H71.128L71.128 800.528H83.3423V813.324ZM119.985 813.324H107.771V800.528H119.985V813.324ZM83.3423 826.178H71.128V813.381H83.3423L83.3423 826.178ZM71.1533 826.178H58.939L58.939 813.381H71.1533L71.1533 826.178ZM107.846 744.351H95.6322V731.554H107.846V744.351ZM58.9643 667.716H46.75L46.75 654.92H58.9643L58.9643 667.716ZM83.3675 642.009H71.1533L71.1533 629.213H83.3675V642.009ZM120.01 642.009H107.796V629.213H120.01V642.009ZM83.3675 654.863H71.1533V642.066H83.3675L83.3675 654.863ZM71.1785 654.863L58.9643 654.863L58.9643 642.066H71.1785L71.1785 654.863ZM107.847 573.064H95.6323V560.268H107.847V573.064ZM71.2038 496.258H58.9895V483.462L71.2038 483.462V496.258ZM58.9895 496.402H46.7753L46.7753 483.605H58.9895L58.9895 496.402ZM83.3928 470.694H71.1785V457.898H83.3928V470.694ZM95.607 470.666L83.3928 470.666V457.869H95.607V470.666ZM120.036 470.694H107.821V457.898H120.036V470.694ZM83.3928 483.548H71.1785L71.1785 470.752H83.3928L83.3928 483.548ZM71.2038 483.548H58.9895L58.9895 470.752L71.2038 470.752L71.2038 483.548ZM125.032 765.18H111.758L111.758 753.388H125.032L125.032 765.18ZM151.606 788.764H138.332V776.972H151.606V788.764ZM151.606 753.417H138.332V741.625H151.606V753.417ZM164.93 788.764H151.656V776.972H164.93V788.764ZM164.93 800.528H151.656V788.736H164.93V800.528ZM151.631 618.138H138.357L138.357 606.346H151.631V618.138ZM151.631 582.791H138.357V570.999H151.631V582.791ZM164.956 618.138H151.682V606.346H164.956V618.138ZM164.956 629.902H151.682V618.11H164.956V629.902ZM65.0966 570.999H51.8225L51.8225 559.206H65.0966V570.999ZM65.1724 582.762H51.8982L51.8982 570.97H65.1724L65.1724 582.762ZM65.0966 606.346H51.8225L51.8225 594.554H65.0966L65.0966 606.346ZM51.772 570.999H38.4979L38.4979 559.206H51.772L51.772 570.999ZM51.772 559.235H38.4979L38.4979 547.443H51.772L51.772 559.235ZM51.8982 629.901H38.624L38.624 618.109H51.8982L51.8982 629.901ZM65.0209 742.141H51.7468L51.7468 730.349H65.0209V742.141ZM65.0966 753.905L51.8225 753.905L51.8225 742.113H65.0966L65.0966 753.905ZM65.0209 777.489L51.7468 777.489L51.7468 765.697H65.0209V777.489ZM51.6963 742.141H38.4221L38.4221 730.349H51.6963L51.6963 742.141ZM51.6963 730.378H38.4221L38.4221 718.586H51.6963L51.6963 730.378ZM51.8225 801.044H38.5483L38.5483 789.252H51.8225L51.8225 801.044ZM78.3455 921.403H65.0714L65.0714 909.612H78.3455V921.403ZM65.0209 909.612H51.7467L51.7467 897.819H65.0209V909.612ZM65.0966 921.403H51.8225L51.8225 909.611L65.0966 909.612L65.0966 921.403ZM65.0209 944.959H51.7467L51.7467 933.167H65.0209V944.959ZM51.6963 909.612H38.4221L38.4221 897.819H51.6963L51.6963 909.612ZM51.6963 897.848H38.4221L38.4221 886.056H51.6963L51.6963 897.848Z" stroke="#9C1B1C" stroke-width="0.59" stroke-miterlimit="10"/>
</g>
</svg>
