<?xml version="1.0" standalone="no"?>
<!DOCTYPE svg PUBLIC "-//W3C//DTD SVG 20010904//EN"
 "http://www.w3.org/TR/2001/REC-SVG-20010904/DTD/svg10.dtd">
<svg version="1.0" xmlns="http://www.w3.org/2000/svg"
 width="2084.000000pt" height="2085.000000pt" viewBox="0 0 2084.000000 2085.000000"
 preserveAspectRatio="xMidYMid meet">
<metadata>
Created by potrace 1.16, written by Peter Selinger 2001-2019
</metadata>
<g transform="translate(0.000000,2085.000000) scale(0.100000,-0.100000)"
fill="#000000" stroke="none">
<path d="M8489 16898 c-46 -62 -158 -214 -249 -338 -184 -248 -540 -732 -753
-1021 l-137 -186 0 -239 1 -239 734 -979 c626 -835 733 -982 724 -998 -6 -10
-118 -195 -251 -411 -132 -216 -326 -531 -431 -702 -104 -170 -215 -350 -246
-398 l-56 -89 -334 1 -334 0 -23 23 c-12 13 -161 194 -331 403 -170 209 -389
478 -487 598 -97 120 -176 222 -174 227 7 20 794 870 803 868 6 -2 122 -122
259 -268 137 -146 267 -283 288 -305 l38 -40 -92 -129 -91 -128 -147 147 -147
147 -92 -127 c-50 -69 -91 -128 -91 -131 0 -9 543 -619 551 -619 10 0 37 34
320 395 119 151 277 353 353 449 75 96 135 178 133 184 -1 5 -232 288 -512
628 l-510 619 -205 0 -205 -1 -192 -237 c-106 -130 -388 -478 -627 -772 l-436
-535 0 -185 0 -185 78 -91 c143 -168 346 -407 662 -779 173 -203 358 -422 412
-485 l98 -114 0 -168 0 -168 -138 -232 c-180 -303 -590 -995 -721 -1217 l-61
-105 0 -217 0 -217 421 -574 c232 -315 439 -597 461 -626 l39 -52 411 2 410 3
240 415 c392 680 446 774 450 786 2 6 -121 176 -272 377 l-275 367 -242 0
-242 0 -147 -295 c-81 -163 -145 -297 -143 -298 2 -2 77 -60 166 -130 116 -90
164 -123 170 -114 5 7 56 106 113 220 l103 208 110 -109 109 -109 -192 -334
c-106 -184 -199 -340 -206 -348 -9 -10 -47 -14 -156 -14 l-143 0 -75 99 c-41
55 -182 245 -313 422 l-238 323 102 172 c56 95 128 215 159 267 31 52 124 208
205 345 81 138 167 282 190 320 l42 70 330 3 330 2 60 -82 c95 -132 398 -552
493 -683 48 -66 158 -219 245 -340 87 -121 200 -278 252 -349 57 -79 90 -133
85 -141 -4 -7 -185 -254 -402 -549 -217 -296 -418 -570 -447 -609 -29 -40
-147 -200 -262 -357 l-210 -285 -1 -198 0 -198 222 -312 c256 -359 340 -478
532 -750 l139 -197 197 0 197 0 414 472 c228 259 445 507 483 550 82 94 89 57
-68 323 -62 105 -164 277 -227 382 l-114 193 -221 0 -221 0 -183 -275 c-100
-151 -180 -280 -177 -288 7 -19 166 -207 175 -207 5 0 70 86 146 190 77 105
142 193 146 195 4 2 55 -76 115 -175 l107 -179 -115 -133 c-220 -255 -388
-443 -396 -446 -4 -1 -155 194 -335 435 -224 298 -326 441 -320 449 5 7 133
174 284 370 390 508 446 581 503 657 l51 67 240 0 c225 0 242 -1 253 -19 6
-10 58 -79 116 -152 102 -133 700 -908 806 -1046 30 -39 58 -70 62 -67 3 2
230 292 504 644 l498 640 237 0 238 0 422 -552 c383 -498 422 -553 410 -571
-39 -63 -643 -858 -649 -855 -5 2 -121 131 -258 288 l-251 285 22 40 c45 83
191 325 196 324 3 0 70 -90 149 -200 80 -109 148 -196 151 -192 102 116 179
217 173 226 -4 7 -87 132 -185 280 l-178 267 -224 0 c-193 0 -225 -2 -230 -15
-5 -15 -127 -222 -363 -618 -52 -87 -96 -164 -99 -171 -3 -8 48 -75 121 -157
69 -79 287 -327 483 -551 l357 -408 197 0 197 0 59 83 c32 45 135 190 229 322
93 132 267 377 387 544 l216 305 0 201 0 201 -183 249 c-101 138 -347 473
-547 745 -448 610 -504 687 -557 759 l-41 57 156 216 c87 119 207 285 267 370
61 84 248 343 415 575 l305 423 330 0 330 -1 200 -337 c109 -185 259 -438 333
-561 161 -272 165 -278 155 -295 -4 -7 -145 -198 -313 -425 l-304 -412 -145 3
-145 3 -64 110 c-71 121 -282 486 -319 550 l-22 41 108 108 109 109 111 -222
112 -222 92 72 c50 39 125 96 165 127 39 30 72 58 72 63 0 5 -65 140 -145 299
l-145 290 -243 0 -242 -1 -270 -361 c-148 -199 -271 -367 -273 -373 -2 -7 79
-154 179 -326 99 -173 235 -408 302 -524 110 -192 206 -356 212 -363 1 -2 186
-3 410 -3 l407 0 286 388 c157 213 363 494 458 623 l174 235 0 224 c0 201 -2
227 -19 255 -18 31 -71 119 -586 991 -153 259 -286 484 -296 501 -17 27 -19
53 -19 193 l0 162 625 735 625 736 0 188 0 188 -272 335 c-150 184 -397 487
-548 672 -151 186 -311 382 -354 436 l-79 99 -206 -1 -206 0 -510 -621 c-280
-341 -511 -623 -512 -627 -2 -3 47 -69 108 -146 60 -77 188 -239 283 -360 350
-447 409 -520 418 -520 5 0 132 139 282 309 l272 310 -89 125 c-50 69 -92 128
-94 131 -2 2 -70 -62 -151 -143 l-147 -147 -84 117 c-47 65 -85 125 -85 134
-1 19 563 621 577 616 5 -1 189 -198 408 -437 l397 -433 -126 -156 c-224 -276
-836 -1026 -865 -1060 l-27 -33 -337 1 c-185 1 -340 4 -343 8 -4 5 -124 199
-267 433 -143 234 -363 592 -488 795 -124 204 -227 373 -228 376 -1 3 325 443
726 977 400 535 732 983 737 996 5 13 9 122 9 242 l1 219 -34 45 c-18 25 -277
376 -575 780 -297 404 -559 759 -582 788 l-40 52 -347 -2 -347 -3 -442 -589
-442 -589 44 -56 c25 -31 239 -304 477 -608 238 -304 436 -552 439 -553 3 0
28 28 56 63 191 237 448 555 505 626 l68 83 -23 28 c-60 76 -193 229 -198 229
-4 1 -86 -93 -184 -209 -98 -115 -181 -210 -186 -210 -9 0 -249 335 -249 348
0 5 84 108 186 228 103 121 241 283 307 362 l121 143 21 -23 c12 -13 137 -169
277 -348 140 -179 312 -399 383 -489 118 -151 127 -165 115 -185 -7 -11 -235
-326 -507 -698 -389 -533 -499 -678 -516 -678 -299 -4 -430 -1 -442 11 -7 8
-207 282 -445 609 -238 327 -450 619 -472 648 l-39 53 -33 -43 c-18 -24 -85
-115 -148 -203 -367 -511 -752 -1042 -766 -1057 -15 -15 -42 -17 -227 -18
-115 0 -217 -1 -226 0 -8 0 -31 21 -49 48 -35 48 -413 566 -829 1135 -93 127
-149 212 -145 220 4 6 147 190 318 407 403 515 479 610 482 610 2 0 143 -164
314 -365 l311 -366 -123 -171 c-68 -94 -127 -173 -133 -174 -8 -2 -288 318
-353 404 -15 19 -21 14 -167 -158 l-73 -86 311 -384 c170 -212 314 -385 318
-385 6 0 759 950 936 1182 l24 31 -443 591 -443 591 -347 0 -346 0 -83 -112z
m2104 -2981 c156 -242 880 -1360 1019 -1574 31 -49 83 -129 115 -179 32 -50
246 -381 476 -736 l418 -644 0 -190 1 -189 -1104 -1577 c-606 -868 -1106
-1578 -1109 -1578 -6 0 -85 111 -457 645 -46 66 -131 188 -188 270 -58 83
-218 312 -356 510 -138 198 -301 432 -363 520 -61 88 -237 340 -390 560 -153
220 -319 456 -367 525 l-88 125 0 188 0 187 392 608 c215 334 446 690 511 792
66 102 220 340 342 530 122 190 302 469 400 620 97 151 263 409 369 572 105
163 194 294 199 289 4 -4 85 -128 180 -274z"/>
<path d="M10228 13312 c-211 -320 -800 -1209 -1253 -1892 -478 -720 -515 -778
-515 -790 0 -10 187 -290 1213 -1820 164 -245 396 -590 514 -767 119 -177 220
-320 225 -317 5 3 104 148 220 322 116 174 257 385 313 467 56 83 285 425 510
760 225 336 519 774 654 975 135 201 245 372 245 380 0 8 -148 238 -329 510
-180 272 -401 605 -490 740 -145 220 -701 1058 -1009 1523 -65 97 -118 177
-119 177 -1 0 -81 -121 -179 -268z m383 -1062 c100 -146 201 -292 224 -325 23
-33 181 -260 350 -505 170 -245 360 -519 423 -610 63 -91 116 -169 118 -175 2
-5 -115 -179 -259 -385 -145 -206 -435 -621 -645 -921 -209 -300 -389 -555
-399 -567 -18 -22 -23 -15 -673 914 -360 515 -656 942 -658 949 -2 7 176 271
394 587 433 624 627 904 804 1160 87 127 118 164 126 155 7 -7 94 -131 195
-277z"/>
<path d="M10189 11463 c-118 -159 -300 -404 -406 -547 l-192 -258 43 -62 c44
-62 189 -273 311 -451 38 -55 119 -172 180 -260 61 -88 149 -215 195 -282 46
-67 87 -120 91 -117 17 10 801 1153 803 1169 1 14 -36 65 -419 580 -126 171
-264 356 -305 412 -41 56 -78 102 -82 103 -3 0 -102 -129 -219 -287z m466
-465 c132 -176 243 -326 246 -332 4 -6 -55 -99 -130 -208 -75 -108 -185 -268
-246 -357 -60 -88 -113 -160 -116 -161 -4 0 -90 120 -192 268 -323 468 -311
450 -300 464 5 7 117 156 248 331 130 174 240 317 244 317 3 -1 114 -145 246
-322z"/>
</g>
</svg>
